name Walk9.mot
datacolumns 19
datarows 12
range 1.13000000 1.18500000
endheader

                time	   L_ground_force_vx	   L_ground_force_vy	   L_ground_force_vz	   L_ground_force_px	   L_ground_force_py	   L_ground_force_pz	   R_ground_force_vx	   R_ground_force_vy	   R_ground_force_vz	   R_ground_force_px	   R_ground_force_py	   R_ground_force_pz	   L_ground_torque_x	   L_ground_torque_y	   L_ground_torque_z	   R_ground_torque_x	   R_ground_torque_y	   R_ground_torque_z	
          1.13000000	         -6.93608570	        153.15890199	         -9.85478390	         -0.06894456	          0.00000000	         -0.00787992	          0.00000001	         -0.00000007	         -0.00000000	         -0.00000000	          0.00000000	         -0.00000000	          0.00000000	          0.20853333	          0.00000000	          0.00000000	         -0.00000000	          0.00000000	
          1.13500000	        -12.17544462	        204.85671676	        -12.55513581	         -0.15424500	          0.00000000	         -0.01500370	          0.00000002	         -0.00000003	          0.00000000	          0.00000000	          0.00000000	          0.00000000	          0.00000000	          0.30600756	          0.00000000	          0.00000000	         -0.00000000	          0.00000000	
          1.14000000	        -18.87540455	        259.18073127	        -15.15237219	         -0.22981673	          0.00000000	         -0.02143159	          0.00000002	          0.00000004	          0.00000001	          0.00000000	          0.00000000	          0.00000000	          0.00000000	          0.42282520	          0.00000000	          0.00000000	         -0.00000000	          0.00000000	
          1.14500000	        -27.02026274	        312.69149590	        -17.32338008	         -0.29292721	          0.00000000	         -0.02694513	          0.00000002	          0.00000014	          0.00000002	          0.00000000	          0.00000000	          0.00000000	          0.00000000	          0.55675708	          0.00000000	          0.00000000	         -0.00000001	          0.00000000	
          1.15000000	        -36.43205369	        362.94708152	        -18.71750306	         -0.34279328	          0.00000000	         -0.03149709	          0.00000002	          0.00000029	          0.00000003	          0.00000000	          0.00000000	          0.00000000	          0.00000000	          0.70430918	          0.00000000	          0.00000000	         -0.00000001	          0.00000000	
          1.15500000	        -46.75749808	        408.64661343	        -19.06447613	         -0.37994775	          0.00000000	         -0.03514599	          0.00000002	          0.00000047	          0.00000005	          0.00000000	          0.00000000	          0.00000000	          0.00000000	          0.85963299	          0.00000000	          0.00000000	         -0.00000001	          0.00000000	
          1.16000000	        -57.53400542	        449.29632994	        -18.23821904	         -0.40572682	          0.00000000	         -0.03800410	          0.00000002	          0.00000070	          0.00000007	          0.00000000	          0.00000000	          0.00000000	          0.00000000	          1.01476855	          0.00000000	          0.00000000	         -0.00000001	          0.00000000	
          1.16500000	        -68.34177568	        485.17736722	        -16.24978111	         -0.42187731	          0.00000000	         -0.04020483	          0.00000001	          0.00000097	          0.00000009	          0.00000000	          0.00000000	          0.00000000	          0.00000000	          1.16104576	          0.00000000	          0.00000000	         -0.00000001	          0.00000000	
          1.17000000	        -78.93929478	        517.12150856	        -13.21285488	         -0.43027682	          0.00000000	         -0.04188096	         -0.00000001	          0.00000128	          0.00000012	          0.00000000	          0.00000000	          0.00000000	          0.00000000	          1.29033678	          0.00000000	          0.00000000	         -0.00000001	          0.00000000	
          1.17500000	        -89.25822358	        546.13237541	         -9.30459137	         -0.43275106	          0.00000000	         -0.04314917	         -0.00000003	          0.00000160	          0.00000014	          0.00000000	          0.00000000	          0.00000000	          0.00000000	          1.39610727	          0.00000000	          0.00000000	         -0.00000001	          0.00000000	
          1.18000000	        -99.26296529	        573.09662321	         -4.73451012	         -0.43096316	          0.00000000	         -0.04410553	         -0.00000006	          0.00000190	          0.00000016	          0.00000000	          0.00000000	          0.00000000	          0.00000000	          1.47487746	          0.00000000	          0.00000000	         -0.00000000	          0.00000000	
          1.18500000	       -108.79393453	        598.67026930	          0.28631987	         -0.42635154	          0.00000000	         -0.04482816	         -0.00000010	          0.00000213	          0.00000017	          0.00000000	          0.00000000	          0.00000000	          0.00000000	          1.52655751	          0.00000000	          0.00000000	          0.00000000	          0.00000000	
